<svg xmlns="http://www.w3.org/2000/svg" width="80.09" height="53.582" viewBox="0 0 80.09 53.582">
  <g id="sv-logo" transform="translate(-118.14 -53.71)">
    <g id="Group_61" data-name="Group 61" transform="translate(118.142 53.71)">
      <rect id="Rectangle_166" data-name="Rectangle 166" width="0.901" height="0.899" transform="translate(47.18 0.972)" fill="#fcfcfc"/>
      <rect id="Rectangle_167" data-name="Rectangle 167" width="0.901" height="0.899" transform="translate(65.909 12.149)" fill="#fcfcfc"/>
      <path id="Path_223" data-name="Path 223" d="M469.886,75.005a1.314,1.314,0,0,0,.536-.456,1.929,1.929,0,0,0,.286-.718,4.893,4.893,0,0,0,.084-.948V66.59h-.9v6.293a4.549,4.549,0,0,1-.039.645,1.18,1.18,0,0,1-.135.428.582.582,0,0,1-.258.237,1.03,1.03,0,0,1-.422.073,1.972,1.972,0,0,1-.213-.011,1.6,1.6,0,0,1-.247-.056l-.237.865a2.723,2.723,0,0,0,.731.1A1.925,1.925,0,0,0,469.886,75.005Z" transform="translate(-393.029 -63.82)" fill="#fcfcfc"/>
      <path id="Path_224" data-name="Path 224" d="M453.94,54.886H452.7v-.209a.417.417,0,0,1,.073-.265.362.362,0,0,1,.277-.077h.619V53.71h-.634a1.091,1.091,0,0,0-.794.269,1.175,1.175,0,0,0-.275.865v.733h1.972v-.69Z" transform="translate(-380.179 -53.71)" fill="#fcfcfc"/>
      <rect id="Rectangle_168" data-name="Rectangle 168" width="0.901" height="0.899" transform="translate(64.107 12.149)" fill="#fcfcfc"/>
      <rect id="Rectangle_169" data-name="Rectangle 169" width="0.901" height="0.899" transform="translate(48.982 0.972)" fill="#fcfcfc"/>
      <path id="Path_225" data-name="Path 225" d="M438.217,71.977a3.57,3.57,0,0,0,1.187.54,5.7,5.7,0,0,0,1.43.174h.239l.3-.634v.892a1.185,1.185,0,0,1-.4,1.011,1.868,1.868,0,0,1-1.138.3,3.183,3.183,0,0,1-.748-.08,4.3,4.3,0,0,1-.759-.269l-.282.865a7.964,7.964,0,0,0,.918.286,3.411,3.411,0,0,0,.8.095,2.554,2.554,0,0,0,1.914-.624,2.331,2.331,0,0,0,.6-1.68V66.59h-1.441a4.669,4.669,0,0,0-1.52.237,3.665,3.665,0,0,0-1.176.645,2.843,2.843,0,0,0-1.03,2.209,2.891,2.891,0,0,0,.3,1.366A2.6,2.6,0,0,0,438.217,71.977Zm0-3.185a2.208,2.208,0,0,1,.551-.69,2.548,2.548,0,0,1,.783-.443,2.672,2.672,0,0,1,.884-.155v0h1.456l-.514.256v4.037h-.912a3.108,3.108,0,0,1-.951-.142,2.366,2.366,0,0,1-.783-.411,1.891,1.891,0,0,1-.529-.662,2.038,2.038,0,0,1-.191-.9A1.87,1.87,0,0,1,438.217,68.792Z" transform="translate(-368.515 -63.82)" fill="#fcfcfc"/>
      <path id="Path_226" data-name="Path 226" d="M323.474,75.038h1.871v-.673a.956.956,0,0,0,.056.092,1.33,1.33,0,0,0,.535.456,1.887,1.887,0,0,0,.815.157h16.42V66.59h-.9v7.583H326.783a1.023,1.023,0,0,1-.421-.073.559.559,0,0,1-.258-.237,1.269,1.269,0,0,1-.135-.428,4.549,4.549,0,0,1-.039-.645v-6.2H323.5a4.142,4.142,0,0,0-4.185,4.224v.024A4.105,4.105,0,0,0,323.474,75.038Zm-3.2-4.247a3.211,3.211,0,0,1,3.2-3.348h2.108l-.553.275V72.79a4.861,4.861,0,0,0,.084.948,2.09,2.09,0,0,0,.14.447H323.5a3.249,3.249,0,0,1-3.226-3.372V70.79Z" transform="translate(-276.049 -63.82)" fill="#fcfcfc"/>
      <path id="Path_227" data-name="Path 227" d="M275.67,72.766l.394,1.037-5.721-7.263h-.893v8.441h.929V68.62l-.529-1.23,5.989,7.592h.761V66.54h-.931Z" transform="translate(-236.912 -63.781)" fill="#fcfcfc"/>
      <path id="Path_228" data-name="Path 228" d="M321.926,138.042l5.192-4.949V129.7H313.242v3.865h7.114L323,131.87l-6.587,6.613.705,2.869h1.877c2.523,0,4.019.938,4.019,2.607v.058c0,1.523-1.2,2.488-2.9,2.488a6.266,6.266,0,0,1-4.957-2.46L312.04,147a9.967,9.967,0,0,0,8.009,3.542c4.576,0,7.392-2.841,7.392-6.706v-.058C327.443,139.976,324.714,138.511,321.926,138.042Z" transform="translate(-270.342 -113.358)" fill="#fcfcfc"/>
      <path id="Path_229" data-name="Path 229" d="M226.4,65.87a4.28,4.28,0,0,0-4.325,4.366v.024a4.313,4.313,0,1,0,8.626-.024v-.024A4.242,4.242,0,0,0,226.4,65.87Zm3.31,4.389a3.318,3.318,0,0,1-3.31,3.46,3.358,3.358,0,0,1-3.333-3.484v-.024a3.32,3.32,0,0,1,3.31-3.46,3.358,3.358,0,0,1,3.333,3.484Z" transform="translate(-199.729 -63.255)" fill="#fcfcfc"/>
      <path id="Path_230" data-name="Path 230" d="M400.012,128.06a10.609,10.609,0,0,0-10.942,10.6v.058a10.918,10.918,0,0,0,21.824-.058V138.6A10.509,10.509,0,0,0,400.012,128.06Zm6.161,10.656a6.135,6.135,0,0,1-6.161,6.383,6.233,6.233,0,0,1-6.22-6.441V138.6a6.134,6.134,0,0,1,6.159-6.383,6.233,6.233,0,0,1,6.22,6.441v.058Z" transform="translate(-330.806 -112.07)" fill="#fcfcfc"/>
      <rect id="Rectangle_170" data-name="Rectangle 170" width="0.955" height="8.439" transform="translate(19.749 2.759)" fill="#fcfcfc"/>
      <path id="Path_231" data-name="Path 231" d="M123.26,146.776l.871-.671,4.488-3.458c3.637-2.811,5.4-4.508,5.4-7.934v-.058c0-3.837-2.815-6.325-7.069-6.325-3.667,0-5.632,1.493-7.656,4.245l3.168,2.546c1.525-1.873,2.611-2.751,4.2-2.751a2.517,2.517,0,0,1,2.757,2.665c0,1.7-1,2.811-3.548,4.918l-6.835,5.592v3.572h15.2v-3.895H126.4Z" transform="translate(-118.841 -112.282)" fill="#fcfcfc"/>
      <path id="Path_232" data-name="Path 232" d="M122.632,75.041l3.634-8.5h-1.026l-2.873,6.918.09.929-.237-.576L119.733,67.8l-.52-1.258H118.15l3.637,8.5Z" transform="translate(-118.15 -63.781)" fill="#fcfcfc"/>
      <rect id="Rectangle_171" data-name="Rectangle 171" width="0.955" height="8.439" transform="translate(9.413 2.759)" fill="#fcfcfc"/>
      <path id="Path_233" data-name="Path 233" d="M176.767,69.87c-1.86-.4-2.295-.843-2.295-1.639v-.024c0-.759.7-1.361,1.8-1.361a3.723,3.723,0,0,1,2.441.916l.555-.735A4.414,4.414,0,0,0,176.3,65.99a2.5,2.5,0,0,0-2.779,2.3v.024c0,1.387.895,2.013,2.839,2.437,1.776.374,2.2.819,2.2,1.6v.024c0,.832-.748,1.434-1.884,1.434a4.03,4.03,0,0,1-2.9-1.194l-.591.7a4.948,4.948,0,0,0,3.454,1.351c1.68,0,2.886-.94,2.886-2.387v-.024C179.52,70.969,178.651,70.28,176.767,69.87Z" transform="translate(-161.345 -63.349)" fill="#fcfcfc"/>
    </g>
    <path id="Path_234" data-name="Path 234" d="M243.1,121.79l1.041,1-1,1.039-1.041-1Z" transform="translate(-97.301 -53.439)" fill="#28316f"/>
    <path id="Path_235" data-name="Path 235" d="M257.81,122.829l1.039,1,1-1.039-1.039-1Z" transform="translate(-109.633 -53.439)" fill="#b4b1b3"/>
    <path id="Path_236" data-name="Path 236" d="M251,129.749l.811.776.776-.809-.811-.776Z" transform="translate(-104.287 -59.051)" fill="#d5d505"/>
    <path id="Path_237" data-name="Path 237" d="M264.81,131.816l.809.776.776-.809-.809-.774Z" transform="translate(-115.127 -60.676)" fill="#75b12f"/>
    <path id="Path_238" data-name="Path 238" d="M244.84,135.5l.811.776.776-.809-.809-.774Z" transform="translate(-99.452 -63.565)" fill="#d5d505"/>
    <path id="Path_239" data-name="Path 239" d="M257.48,135.929l.809.776.776-.809-.809-.776Z" transform="translate(-109.374 -63.902)" fill="#29b0ba"/>
    <path id="Path_240" data-name="Path 240" d="M252.54,141.128l.568.546.548-.568-.57-.546Z" transform="translate(-105.496 -68.172)" fill="#75b12f"/>
    <path id="Path_241" data-name="Path 241" d="M262.53,143.12l.568.544.548-.568-.57-.546Z" transform="translate(-113.338 -69.734)" fill="#5aac4c"/>
    <rect id="Rectangle_172" data-name="Rectangle 172" width="1.796" height="1.794" transform="translate(153.884 69.061) rotate(-10.387)" fill="#2983c6"/>
    <rect id="Rectangle_173" data-name="Rectangle 173" width="1.441" height="1.439" transform="translate(151.571 69.798) rotate(-10.376)" fill="#213466"/>
    <rect id="Rectangle_174" data-name="Rectangle 174" width="1.441" height="1.439" transform="translate(154.318 71.773) rotate(-10.393)" fill="#29b0ba"/>
    <rect id="Rectangle_175" data-name="Rectangle 175" width="1.123" height="1.12" transform="translate(152.359 71.977) rotate(-10.382)" fill="#d5d505"/>
    <rect id="Rectangle_176" data-name="Rectangle 176" width="1.123" height="1.12" transform="translate(154.507 74.07) rotate(-10.382)" fill="#fcfcfc"/>
    <rect id="Rectangle_177" data-name="Rectangle 177" width="1.123" height="1.12" transform="translate(150.705 72.427) rotate(-10.382)" fill="#29b0ba"/>
    <rect id="Rectangle_178" data-name="Rectangle 178" width="1.123" height="1.12" transform="translate(152.71 73.87) rotate(-10.382)" fill="#75b12f"/>
    <rect id="Rectangle_179" data-name="Rectangle 179" width="0.789" height="0.787" transform="translate(151.304 74.005) rotate(-10.387)" fill="#fcfcfc"/>
    <rect id="Rectangle_180" data-name="Rectangle 180" width="0.789" height="0.787" transform="translate(152.799 75.607) rotate(-10.358)" fill="#5aac4c"/>
    <path id="Path_242" data-name="Path 242" d="M305.962,151.95l-.772,1.619,1.622.77.772-1.617Z" transform="translate(-146.823 -77.113)" fill="#28316f"/>
    <path id="Path_243" data-name="Path 243" d="M295.809,148.47l-.619,1.3,1.3.619.619-1.3Z" transform="translate(-138.974 -74.381)" fill="#29b0ba"/>
    <path id="Path_244" data-name="Path 244" d="M300.759,163.35l-.619,1.3,1.3.617.619-1.3Z" transform="translate(-142.859 -86.061)" fill="#75b12f"/>
    <path id="Path_245" data-name="Path 245" d="M293.332,158.82l-.482,1.013,1.013.48.484-1.011Z" transform="translate(-137.137 -82.505)" fill="#d5d505"/>
    <path id="Path_246" data-name="Path 246" d="M295.724,172.55l-.484,1.011,1.013.482.484-1.013Z" transform="translate(-139.013 -93.282)" fill="#d5d505"/>
    <path id="Path_247" data-name="Path 247" d="M285.872,156.02l-.482,1.013,1.013.48.484-1.011Z" transform="translate(-131.281 -80.307)" fill="#2983c6"/>
    <path id="Path_248" data-name="Path 248" d="M289.494,166.9l-.484,1.013,1.015.48.482-1.011Z" transform="translate(-134.123 -88.847)" fill="#fcfcfc"/>
    <path id="Path_249" data-name="Path 249" d="M284.35,163.59l-.34.712.714.338.338-.712Z" transform="translate(-130.198 -86.249)" fill="#75b12f"/>
    <rect id="Rectangle_181" data-name="Rectangle 181" width="0.787" height="0.789" transform="matrix(0.43, -0.903, 0.903, 0.43, 154.086, 80.218)" fill="#29b0ba"/>
    <path id="Path_250" data-name="Path 250" d="M307.094,188.01l-1.574.86.865,1.572,1.574-.86Z" transform="translate(-147.082 -105.418)" fill="#2983c6"/>
    <path id="Path_251" data-name="Path 251" d="M301.585,178.93l-1.265.692.695,1.26,1.262-.693Z" transform="translate(-143.001 -98.29)" fill="#29b0ba"/>
    <path id="Path_252" data-name="Path 252" d="M296.882,193.89l-1.262.692.693,1.26,1.265-.692Z" transform="translate(-139.311 -110.033)" fill="#29b0ba"/>
    <path id="Path_253" data-name="Path 253" d="M294.125,185.58l-.985.54.54.981.985-.538Z" transform="translate(-137.365 -103.51)" fill="#28316f"/>
    <path id="Path_254" data-name="Path 254" d="M288.023,198.11l-.983.54.54.981.983-.538Z" transform="translate(-132.577 -113.345)" fill="#5aac4c"/>
    <path id="Path_255" data-name="Path 255" d="M289.723,178.96l-.983.538.538.983.985-.54Z" transform="translate(-133.911 -98.314)" fill="#213466"/>
    <path id="Path_256" data-name="Path 256" d="M286.275,189.9l-.985.538.54.983.985-.54Z" transform="translate(-131.203 -106.901)" fill="#d5d505"/>
    <path id="Path_257" data-name="Path 257" d="M284.693,183.9l-.693.379.381.69.69-.379Z" transform="translate(-130.19 -102.191)" fill="#fcfcfc"/>
    <path id="Path_258" data-name="Path 258" d="M279.793,192.82l-.693.379.381.69.692-.379Z" transform="translate(-126.344 -109.193)" fill="#29b0ba"/>
    <rect id="Rectangle_182" data-name="Rectangle 182" width="1.794" height="1.796" transform="matrix(0.123, -0.993, 0.993, 0.123, 154.175, 90.94)" fill="#75b12f"/>
    <rect id="Rectangle_183" data-name="Rectangle 183" width="1.439" height="1.441" transform="translate(154.555 88.224) rotate(-82.935)" fill="#213466"/>
    <rect id="Rectangle_184" data-name="Rectangle 184" width="1.439" height="1.441" transform="translate(151.85 90.244) rotate(-82.935)" fill="#29b0ba"/>
    <rect id="Rectangle_185" data-name="Rectangle 185" width="1.12" height="1.123" transform="translate(152.591 88.051) rotate(-82.952)" fill="#75b12f"/>
    <rect id="Rectangle_186" data-name="Rectangle 186" width="1.12" height="1.123" transform="translate(149.947 89.468) rotate(-82.952)" fill="#fcfcfc"/>
    <rect id="Rectangle_187" data-name="Rectangle 187" width="1.12" height="1.123" transform="translate(152.66 86.337) rotate(-82.935)" fill="#fcfcfc"/>
    <rect id="Rectangle_188" data-name="Rectangle 188" width="1.12" height="1.123" transform="translate(150.681 87.811) rotate(-82.935)" fill="#75b12f"/>
    <rect id="Rectangle_189" data-name="Rectangle 189" width="0.787" height="0.789" transform="matrix(0.123, -0.992, 0.992, 0.123, 151.344, 86.145)" fill="#fcfcfc"/>
    <rect id="Rectangle_190" data-name="Rectangle 190" width="0.787" height="0.789" transform="translate(149.363 87.086) rotate(-82.952)" fill="#fcfcfc"/>
    <path id="Path_259" data-name="Path 259" d="M252.74,230.379l-1.316-1.219-1.224,1.314,1.316,1.219Z" transform="translate(-103.659 -137.718)" fill="#d5d505"/>
    <path id="Path_260" data-name="Path 260" d="M251.61,113.6l-1.316-1.219-1.224,1.314,1.318,1.219Z" transform="translate(-102.772 -46.052)" fill="#75b12f"/>
    <path id="Path_261" data-name="Path 261" d="M261.107,222.109l-1.056-.979-.981,1.054,1.056.979Z" transform="translate(-110.622 -131.415)" fill="#29b0ba"/>
    <path id="Path_262" data-name="Path 262" d="M245.4,222.369l-1.058-.979-.981,1.054,1.058.979Z" transform="translate(-98.29 -131.619)" fill="#75b12f"/>
    <path id="Path_263" data-name="Path 263" d="M253.755,216.963l-.822-.763-.763.822.822.761Z" transform="translate(-105.206 -127.545)" fill="#2983c6"/>
    <path id="Path_264" data-name="Path 264" d="M239.915,215.131l-.822-.761-.763.819.824.763Z" transform="translate(-94.342 -126.109)" fill="#d5d505"/>
    <path id="Path_265" data-name="Path 265" d="M258.665,210.7l-.822-.761-.763.819.822.763Z" transform="translate(-109.06 -122.631)" fill="#d5d505"/>
    <path id="Path_266" data-name="Path 266" d="M247.175,210.891l-.822-.761-.763.819.822.763Z" transform="translate(-100.041 -122.781)" fill="#fcfcfc"/>
    <path id="Path_267" data-name="Path 267" d="M253.756,207.308l-.579-.538-.538.579.578.535Z" transform="translate(-105.575 -120.143)" fill="#213466"/>
    <path id="Path_268" data-name="Path 268" d="M243.736,205.486l-.578-.536-.538.576.579.535Z" transform="translate(-97.709 -118.714)" fill="#fcfcfc"/>
    <rect id="Rectangle_191" data-name="Rectangle 191" width="1.796" height="1.794" transform="translate(139.293 89.767) rotate(-11.332)" fill="#2983c6"/>
    <rect id="Rectangle_192" data-name="Rectangle 192" width="1.441" height="1.439" transform="matrix(0.98, -0.196, 0.196, 0.98, 142.003, 89.265)" fill="#29b0ba"/>
    <rect id="Rectangle_193" data-name="Rectangle 193" width="1.441" height="1.439" transform="matrix(0.98, -0.197, 0.197, 0.98, 139.239, 87.343)" fill="#75b12f"/>
    <rect id="Rectangle_194" data-name="Rectangle 194" width="1.123" height="1.12" transform="matrix(0.98, -0.196, 0.196, 0.98, 141.554, 87.352)" fill="#d5d505"/>
    <rect id="Rectangle_195" data-name="Rectangle 195" width="1.123" height="1.12" transform="matrix(0.98, -0.196, 0.196, 0.98, 143.201, 86.874)" fill="#28316f"/>
    <rect id="Rectangle_196" data-name="Rectangle 196" width="1.123" height="1.12" transform="matrix(0.98, -0.196, 0.196, 0.98, 141.175, 85.465)" fill="#2983c6"/>
    <rect id="Rectangle_197" data-name="Rectangle 197" width="0.789" height="0.787" transform="translate(142.974 85.578) rotate(-11.314)" fill="#75b12f"/>
    <rect id="Rectangle_198" data-name="Rectangle 198" width="0.789" height="0.787" transform="matrix(0.98, -0.197, 0.197, 0.98, 141.46, 83.997)" fill="#fcfcfc"/>
    <path id="Path_269" data-name="Path 269" d="M195.484,192.784l.746-1.632-1.637-.742-.744,1.63Z" transform="translate(-59.428 -107.301)" fill="#29b0ba"/>
    <path id="Path_270" data-name="Path 270" d="M207.432,197.8l.6-1.308-1.31-.6-.6,1.31Z" transform="translate(-69.059 -111.603)" fill="#d5d505"/>
    <path id="Path_271" data-name="Path 271" d="M202.232,183.005l.6-1.31-1.312-.6-.6,1.31Z" transform="translate(-64.977 -99.994)" fill="#2983c6"/>
    <rect id="Rectangle_199" data-name="Rectangle 199" width="1.12" height="1.123" transform="translate(137.951 83.49) rotate(-65.488)" fill="#29b0ba"/>
    <path id="Path_272" data-name="Path 272" d="M217.652,200.794l.465-1.019-1.022-.465-.465,1.019Z" transform="translate(-77.309 -114.287)" fill="#fcfcfc"/>
    <rect id="Rectangle_200" data-name="Rectangle 200" width="1.12" height="1.123" transform="matrix(0.415, -0.91, 0.91, 0.415, 137.394, 80.548)" fill="#28316f"/>
    <rect id="Rectangle_201" data-name="Rectangle 201" width="1.12" height="1.123" transform="matrix(0.415, -0.91, 0.91, 0.415, 139.573, 84.069)" fill="#5aac4c"/>
    <rect id="Rectangle_202" data-name="Rectangle 202" width="1.12" height="1.123" transform="translate(138.749 81.746) rotate(-65.455)" fill="#d5d505"/>
    <path id="Path_273" data-name="Path 273" d="M221.818,185.623l.329-.716-.718-.327-.329.718Z" transform="translate(-80.818 -102.725)" fill="#213466"/>
    <path id="Path_274" data-name="Path 274" d="M220.4,175.555l.327-.718-.718-.327-.327.718Z" transform="translate(-79.703 -94.821)" fill="#75b12f"/>
    <path id="Path_275" data-name="Path 275" d="M193.54,156.545l1.561-.888-.89-1.557-1.561.888Z" transform="translate(-58.486 -78.8)" fill="#29b0ba"/>
    <path id="Path_276" data-name="Path 276" d="M200.974,167.271l1.254-.712-.716-1.249-1.252.712Z" transform="translate(-64.459 -87.599)" fill="#75b12f"/>
    <path id="Path_277" data-name="Path 277" d="M205.434,152.241l1.252-.712-.714-1.25-1.252.712Z" transform="translate(-67.96 -75.802)" fill="#213466"/>
    <path id="Path_278" data-name="Path 278" d="M209.925,162.067l.974-.555-.555-.972-.974.555Z" transform="translate(-71.61 -83.855)" fill="#2983c6"/>
    <path id="Path_279" data-name="Path 279" d="M215.817,149.439l.974-.555-.555-.974-.976.555Z" transform="translate(-76.233 -73.941)" fill="#75b12f"/>
    <path id="Path_280" data-name="Path 280" d="M214.437,168.617l.974-.555-.555-.972-.976.555Z" transform="translate(-75.15 -88.997)" fill="#29b0ba"/>
    <path id="Path_281" data-name="Path 281" d="M217.7,157.619l.974-.555-.555-.974-.976.557Z" transform="translate(-77.709 -80.362)" fill="#d5d505"/>
    <path id="Path_282" data-name="Path 282" d="M221.051,165.233l.686-.389-.391-.684-.686.389Z" transform="translate(-80.472 -86.697)" fill="#fcfcfc"/>
    <path id="Path_283" data-name="Path 283" d="M225.8,156.235l.686-.391-.391-.684-.686.389Z" transform="translate(-84.201 -79.632)" fill="#75b12f"/>
    <rect id="Rectangle_203" data-name="Rectangle 203" width="1.794" height="1.796" transform="matrix(0.106, -0.994, 0.994, 0.106, 138.775, 70.888)" fill="#75b12f"/>
    <rect id="Rectangle_204" data-name="Rectangle 204" width="1.439" height="1.441" transform="translate(138.83 73.302) rotate(-83.892)" fill="#fcfcfc"/>
    <rect id="Rectangle_205" data-name="Rectangle 205" width="1.439" height="1.441" transform="translate(141.504 71.241) rotate(-83.892)" fill="#29b0ba"/>
    <rect id="Rectangle_206" data-name="Rectangle 206" width="1.12" height="1.123" transform="translate(141.148 73.17) rotate(-83.886)" fill="#d5d505"/>
    <rect id="Rectangle_207" data-name="Rectangle 207" width="1.12" height="1.123" transform="translate(143.771 71.699) rotate(-83.91)" fill="#2983c6"/>
    <rect id="Rectangle_208" data-name="Rectangle 208" width="1.12" height="1.123" transform="translate(141.11 74.879) rotate(-83.886)" fill="#29b0ba"/>
    <rect id="Rectangle_209" data-name="Rectangle 209" width="1.12" height="1.123" transform="translate(143.064 73.371) rotate(-83.886)" fill="#75b12f"/>
    <rect id="Rectangle_210" data-name="Rectangle 210" width="0.787" height="0.789" transform="translate(142.793 74.756) rotate(-83.892)" fill="#213466"/>
    <rect id="Rectangle_211" data-name="Rectangle 211" width="0.787" height="0.789" transform="translate(144.756 73.781) rotate(-83.927)" fill="#fcfcfc"/>
    <path id="Path_284" data-name="Path 284" d="M239.61,156.913a3.687,3.687,0,0,0-.712-.308,4.235,4.235,0,0,0-1.959-.144,4.742,4.742,0,0,0-.847.219l-.084.03a4.563,4.563,0,0,0-.449.2c-.129.065-.256.135-.383.213a8.738,8.738,0,0,0-.854.587,18.28,18.28,0,0,1-.088-4.557s.006-.006.011,0c.677.426.488,1.615.344,1.957,0,.006.006.011.013.006a2.1,2.1,0,0,0,.258-2.374c0-.006,0-.013.011-.009a1.889,1.889,0,0,1,.305.312,1.853,1.853,0,0,1,.383,1.011,3.212,3.212,0,0,1,0,.456c0,.037,0,.069-.009.1,0,0,0,.006.009,0s0,0,0,0a1.946,1.946,0,0,0,0-1.779,2.2,2.2,0,0,0-.383-.525c-.047-.049-.1-.1-.153-.146a.007.007,0,0,1,.006-.011c.052.013.1.028.146.043a1.381,1.381,0,0,1,.383.2,1.589,1.589,0,0,1,.533.718,1.86,1.86,0,0,1,.125.658.007.007,0,0,0,.013,0,1.634,1.634,0,0,0-.138-1.344,1.579,1.579,0,0,0-.533-.516,1.705,1.705,0,0,0-.383-.17,1.023,1.023,0,0,0-.183-.041c-.009,0-.006-.013,0-.013.062-.006.123-.009.181-.011a2.078,2.078,0,0,1,.383.03,1.4,1.4,0,0,1,.533.211,1.109,1.109,0,0,1,.359.383c0,.006.013,0,.013,0a1.074,1.074,0,0,0-.37-.72,1.4,1.4,0,0,0-.533-.282,1.567,1.567,0,0,0-.383-.056,1.181,1.181,0,0,0-.477.086c-.006,0-.011,0-.009-.011a.913.913,0,0,1,.486-.344,1.08,1.08,0,0,1,.383-.045.864.864,0,0,1,.314.073c.006,0,.011,0,.006-.011a1.245,1.245,0,0,0-.32-.26,1.014,1.014,0,0,0-.383-.125.962.962,0,0,0-.923.458.006.006,0,0,1-.011,0,2.436,2.436,0,0,1-.127-.26,3.113,3.113,0,0,1-.209-.7c0-.009-.011-.009-.011,0a3.135,3.135,0,0,1-.211.7,2.582,2.582,0,0,1-.127.256.006.006,0,0,1-.011,0,.986.986,0,0,0-1.626-.071.007.007,0,0,0,.006.011,1.006,1.006,0,0,1,1.183.316.007.007,0,0,1-.009.011,1.407,1.407,0,0,0-1.518.376,1.069,1.069,0,0,0-.247.6.007.007,0,0,0,.013,0,1.068,1.068,0,0,1,.234-.288,1.549,1.549,0,0,1,1.222-.327c.009,0,.009.013,0,.013a1.614,1.614,0,0,0-1.224.979,1.755,1.755,0,0,0-.015,1.092.007.007,0,0,0,.013,0,.142.142,0,0,1,0-.03,1.619,1.619,0,0,1,1.187-1.591.007.007,0,0,1,.006.011,1.979,1.979,0,0,0-.54,2.447c0,.006.013,0,.013,0a2.011,2.011,0,0,1,.68-1.88c.006,0,.015,0,.011.009a2.1,2.1,0,0,0,.258,2.374.007.007,0,0,0,.013-.006c-.142-.34-.331-1.531.344-1.957,0,0,.011,0,.011,0a18.279,18.279,0,0,1-.088,4.557,6.906,6.906,0,0,0-1.686-1l-.206-.073a4.414,4.414,0,0,0-1.594-.226,4.132,4.132,0,0,0-1.645.415c-.065.032-.118.062-.159.086a.015.015,0,0,0,.013.028c.049-.015.1-.03.146-.043a4.547,4.547,0,0,1,1.645-.161,4.911,4.911,0,0,1,1.594.428,8.465,8.465,0,0,1,1.9,1.234,20.705,20.705,0,0,1-1.9,1.622c-.022.011-.041.024-.06.034a.444.444,0,0,0-.791.157.433.433,0,0,0,.086.383.637.637,0,0,0,.766.112,10.554,10.554,0,0,0,2.1-1.748c.071-.065.142-.131.215-.2.073.065.144.129.215.194.385.353.738.7,1.06.989.133.12.26.232.383.331a3.393,3.393,0,0,0,.533.37.689.689,0,0,0,.847-.019c.013-.011.026-.022.039-.034a.491.491,0,0,0,.086-.383.43.43,0,0,0-.127-.217.442.442,0,0,0-.665.06,1.683,1.683,0,0,1-.183-.112,6.423,6.423,0,0,1-.533-.43c-.12-.105-.247-.222-.383-.344-.262-.239-.551-.5-.856-.77.271-.226.557-.445.856-.647.125-.084.252-.166.383-.243.174-.1.351-.2.533-.286a5.379,5.379,0,0,1,.847-.325,4.46,4.46,0,0,1,1.959-.12,5.186,5.186,0,0,1,.7.163c.017.011.03-.013.013-.024" transform="translate(-86.377 -75.66)" fill="#757a81"/>
    <g id="Group_62" data-name="Group 62" transform="translate(118.14 95.554)">
      <rect id="Rectangle_212" data-name="Rectangle 212" width="0.529" height="0.529" transform="translate(4.172 5.228)" fill="#fcfcfc"/>
      <path id="Path_285" data-name="Path 285" d="M274.1,257V253.51h-.516v2.976h-1.946V253.51h-.516v2.976h-2.049V253.51h-.811a2.744,2.744,0,0,0-.877.131,2.051,2.051,0,0,0-.671.366,1.633,1.633,0,0,0-.428.557,1.607,1.607,0,0,0-.151.695,1.652,1.652,0,0,0,.174.785,1.568,1.568,0,0,0,.465.54,1.963,1.963,0,0,0,.677.314,3.141,3.141,0,0,0,.813.1l5.837,0Zm-6.6-.6a1.347,1.347,0,0,1-.445-.241,1.141,1.141,0,0,1-.3-.385,1.183,1.183,0,0,1-.11-.518,1.075,1.075,0,0,1,.12-.505,1.269,1.269,0,0,1,.316-.391,1.408,1.408,0,0,1,.447-.252,1.566,1.566,0,0,1,.516-.086h.51v2.462h-.51A1.74,1.74,0,0,1,267.5,256.4Z" transform="translate(-234.303 -252.385)" fill="#fcfcfc"/>
      <rect id="Rectangle_213" data-name="Rectangle 213" width="0.516" height="4.615" transform="translate(28.766 0.002)" fill="#fcfcfc"/>
      <rect id="Rectangle_214" data-name="Rectangle 214" width="0.529" height="0.529" transform="translate(34.235 0.002)" fill="#fcfcfc"/>
      <rect id="Rectangle_215" data-name="Rectangle 215" width="0.529" height="0.529" transform="translate(39.27 5.222)" fill="#fcfcfc"/>
      <rect id="Rectangle_216" data-name="Rectangle 216" width="0.529" height="0.529" transform="translate(5.075 5.228)" fill="#fcfcfc"/>
      <path id="Path_286" data-name="Path 286" d="M181.287,252.383h-.843a1.61,1.61,0,0,1-.71-.129.961.961,0,0,1-.406-.385,2.222,2.222,0,0,0,.045-.482v-1.66h-.516v1.742a1.029,1.029,0,0,1-.239.712.918.918,0,0,1-.723.267,1.156,1.156,0,0,1-.413-.071,1.008,1.008,0,0,1-.323-.194.9.9,0,0,1-.213-.286.884.884,0,0,1-.084-.351v-1.819h-.516v1.781a1.012,1.012,0,0,1-.071.4.741.741,0,0,1-.194.271.768.768,0,0,1-.277.155,1.1,1.1,0,0,1-.329.047h-1v-2.656h-.516v2.656h-2.7l.9-2.155a4.566,4.566,0,0,0-.439-.338,3.821,3.821,0,0,0-.477-.277,2.792,2.792,0,0,0-.5-.187,1.9,1.9,0,0,0-.5-.067,2.022,2.022,0,0,0-.5.067,3.038,3.038,0,0,0-.5.183,3.13,3.13,0,0,0-.477.277,4.5,4.5,0,0,0-.428.34l.908,2.155h-1.785V249.4h-.824a2.662,2.662,0,0,0-.871.135,2.093,2.093,0,0,0-.673.37,1.66,1.66,0,0,0-.434.559,1.62,1.62,0,0,0-.155.705,1.648,1.648,0,0,0,.17.781,1.486,1.486,0,0,0,.465.533,1.983,1.983,0,0,0,.68.308,3.265,3.265,0,0,0,.819.1h.31v.148a.675.675,0,0,1-.232.579,1.067,1.067,0,0,1-.652.174,1.853,1.853,0,0,1-.428-.045,2.5,2.5,0,0,1-.434-.155l-.161.495a4.658,4.658,0,0,0,.525.163,1.967,1.967,0,0,0,.46.056,1.454,1.454,0,0,0,1.095-.357,1.334,1.334,0,0,0,.342-.961v-.1h8.009a1.359,1.359,0,0,0,.667-.161,1.34,1.34,0,0,0,.473-.43,1.293,1.293,0,0,0,.51.482,1.594,1.594,0,0,0,.768.174,1.762,1.762,0,0,0,.789-.161,1.1,1.1,0,0,0,.5-.495,1.4,1.4,0,0,0,.157.215.913.913,0,0,0,.241.189,1.438,1.438,0,0,0,.357.135,2,2,0,0,0,.37.045v.006h1.488V248.28h-.516v4.1Zm-14.332,0h-.523a1.79,1.79,0,0,1-.544-.08,1.366,1.366,0,0,1-.447-.234,1.1,1.1,0,0,1-.3-.378,1.164,1.164,0,0,1-.11-.514,1.089,1.089,0,0,1,.118-.508,1.261,1.261,0,0,1,.316-.4,1.456,1.456,0,0,1,.447-.254,1.535,1.535,0,0,1,.523-.09h.523Zm2.843,0-.8-1.974a1.994,1.994,0,0,1,.609-.366,1.861,1.861,0,0,1,.654-.116,1.821,1.821,0,0,1,.69.138,2.064,2.064,0,0,1,.581.344l-.8,1.974Z" transform="translate(-154.538 -248.28)" fill="#fcfcfc"/>
      <rect id="Rectangle_217" data-name="Rectangle 217" width="0.529" height="0.529" transform="translate(2.409 0.002)" fill="#fcfcfc"/>
      <rect id="Rectangle_218" data-name="Rectangle 218" width="0.529" height="0.529" transform="translate(54.545 0.002)" fill="#fcfcfc"/>
      <rect id="Rectangle_219" data-name="Rectangle 219" width="0.516" height="4.615" transform="translate(49.98 0.002)" fill="#fcfcfc"/>
      <rect id="Rectangle_220" data-name="Rectangle 220" width="0.529" height="0.529" transform="translate(33.332 0.002)" fill="#fcfcfc"/>
      <path id="Path_287" data-name="Path 287" d="M150.021,254.995a1.854,1.854,0,0,0-.082-.566,1.171,1.171,0,0,0-.247-.449,1.375,1.375,0,0,0-.46-.338,1.529,1.529,0,0,0-.622-.112h-.381v.514h.452a.839.839,0,0,1,.355.08.828.828,0,0,1,.277.209.777.777,0,0,1,.151.3,1.545,1.545,0,0,1,.043.385v1.493H147.09v.514h2.931v-2.026Z" transform="translate(-140.864 -252.401)" fill="#fcfcfc"/>
      <rect id="Rectangle_221" data-name="Rectangle 221" width="0.516" height="4.615" transform="translate(77.249 0.002)" fill="#fcfcfc"/>
      <rect id="Rectangle_222" data-name="Rectangle 222" width="0.529" height="0.529" transform="translate(55.449 0.002)" fill="#fcfcfc"/>
      <path id="Path_288" data-name="Path 288" d="M387.486,248.29h-.516v4.1H385.2a1.808,1.808,0,0,0,.161-.759,1.925,1.925,0,0,0-.144-.742,1.806,1.806,0,0,0-.4-.594,1.839,1.839,0,0,0-.6-.4,1.9,1.9,0,0,0-.744-.144,1.766,1.766,0,0,0-.723.148,1.845,1.845,0,0,0-.583.4,1.868,1.868,0,0,0-.389.6,1.888,1.888,0,0,0-.142.733,1.83,1.83,0,0,0,.043.4,2.225,2.225,0,0,0,.112.363h-1.6a1.808,1.808,0,0,0,.161-.759,1.925,1.925,0,0,0-.144-.742,1.807,1.807,0,0,0-.4-.594,1.838,1.838,0,0,0-.6-.4,1.9,1.9,0,0,0-.744-.144,1.756,1.756,0,0,0-.72.148,1.847,1.847,0,0,0-.583.4,1.869,1.869,0,0,0-.389.6,1.889,1.889,0,0,0-.142.733,1.829,1.829,0,0,0,.043.4,2.23,2.23,0,0,0,.112.363h-1.637v-4.1h-.516v4.1h-1.643v-.787a2.015,2.015,0,0,0-.077-.563,1.143,1.143,0,0,0-.245-.454,1.291,1.291,0,0,0-.452-.335,1.606,1.606,0,0,0-.639-.11h-2.282l.97-1.854h-.561l-.989,1.847a1.053,1.053,0,0,0,.082.29.915.915,0,0,0,.151.232h2.628a1.047,1.047,0,0,1,.421.075.741.741,0,0,1,.286.2.691.691,0,0,1,.148.3,1.66,1.66,0,0,1,.039.372v.787h-4.768v-2.976H366.9a2.721,2.721,0,0,0-.875.131,2.052,2.052,0,0,0-.671.366,1.633,1.633,0,0,0-.428.557,1.607,1.607,0,0,0-.151.695,1.652,1.652,0,0,0,.174.785,1.569,1.569,0,0,0,.465.54,1.964,1.964,0,0,0,.677.314,3.137,3.137,0,0,0,.811.1h10.226a1.857,1.857,0,0,0,.6.428,1.778,1.778,0,0,0,.751.157,1.916,1.916,0,0,0,.77-.155,1.835,1.835,0,0,0,.615-.43h2.269a1.856,1.856,0,0,0,.6.428,1.777,1.777,0,0,0,.75.157,1.916,1.916,0,0,0,.77-.155,1.835,1.835,0,0,0,.615-.43h2.622V248.29Zm-20.284,4.1h-.51a1.726,1.726,0,0,1-.544-.084,1.346,1.346,0,0,1-.445-.241,1.142,1.142,0,0,1-.3-.385,1.183,1.183,0,0,1-.11-.518,1.074,1.074,0,0,1,.118-.505,1.269,1.269,0,0,1,.316-.391,1.408,1.408,0,0,1,.447-.252,1.566,1.566,0,0,1,.516-.086h.51v2.462Zm12.536-.228a1.322,1.322,0,0,1-.29.428,1.3,1.3,0,0,1-.432.28,1.423,1.423,0,0,1-.538.1,1.292,1.292,0,0,1-.944-.4,1.336,1.336,0,0,1-.277-.428,1.366,1.366,0,0,1-.1-.52,1.43,1.43,0,0,1,.1-.525,1.352,1.352,0,0,1,.275-.43,1.305,1.305,0,0,1,.415-.292,1.269,1.269,0,0,1,.531-.11,1.4,1.4,0,0,1,.544.1,1.348,1.348,0,0,1,.432.284,1.278,1.278,0,0,1,.286.428,1.4,1.4,0,0,1,.1.544A1.308,1.308,0,0,1,379.737,252.163Zm5,0a1.323,1.323,0,0,1-.29.428,1.3,1.3,0,0,1-.432.28,1.423,1.423,0,0,1-.538.1,1.292,1.292,0,0,1-.944-.4,1.336,1.336,0,0,1-.277-.428,1.368,1.368,0,0,1-.1-.52,1.39,1.39,0,0,1,.1-.525,1.347,1.347,0,0,1,.273-.43,1.3,1.3,0,0,1,.415-.292,1.269,1.269,0,0,1,.531-.11,1.4,1.4,0,0,1,.544.1,1.348,1.348,0,0,1,.432.284,1.278,1.278,0,0,1,.286.428,1.4,1.4,0,0,1,.1.544A1.272,1.272,0,0,1,384.738,252.163Z" transform="translate(-311.738 -248.288)" fill="#fcfcfc"/>
      <path id="Path_289" data-name="Path 289" d="M119.456,256.9a3.139,3.139,0,0,0,.811.1h3.376V253.51h-.516v2.976h-2.05V253.51h-.813a2.73,2.73,0,0,0-.875.131,2.051,2.051,0,0,0-.671.366,1.633,1.633,0,0,0-.428.557,1.607,1.607,0,0,0-.151.695,1.652,1.652,0,0,0,.174.785,1.569,1.569,0,0,0,.465.54A1.929,1.929,0,0,0,119.456,256.9Zm-.8-1.639a1.076,1.076,0,0,1,.12-.505,1.269,1.269,0,0,1,.316-.391,1.408,1.408,0,0,1,.447-.252,1.566,1.566,0,0,1,.516-.086h.51v2.462h-.51a1.728,1.728,0,0,1-.544-.084,1.347,1.347,0,0,1-.445-.241,1.141,1.141,0,0,1-.3-.385A1.154,1.154,0,0,1,118.656,255.261Z" transform="translate(-118.14 -252.385)" fill="#fcfcfc"/>
      <rect id="Rectangle_223" data-name="Rectangle 223" width="0.529" height="0.529" transform="translate(37.386 5.228)" fill="#fcfcfc"/>
      <rect id="Rectangle_224" data-name="Rectangle 224" width="0.529" height="0.529" transform="translate(36.483 5.228)" fill="#fcfcfc"/>
      <path id="Path_290" data-name="Path 290" d="M307.531,253.559a2.774,2.774,0,0,0,.049-.544v-.11h6.63V248.29h-.516v4.1H311.5l.9-2.155a4.555,4.555,0,0,0-.439-.338,3.823,3.823,0,0,0-.477-.277,2.79,2.79,0,0,0-.5-.187,1.9,1.9,0,0,0-.5-.067,2.021,2.021,0,0,0-.5.067,3.034,3.034,0,0,0-.5.183,3.133,3.133,0,0,0-.477.277,4.509,4.509,0,0,0-.428.34l.908,2.155h-1.921v-2.976h-.516v3.6a2.573,2.573,0,0,1-.021.37.686.686,0,0,1-.077.245.322.322,0,0,1-.148.135.589.589,0,0,1-.241.043.784.784,0,0,1-.265-.039l-.135.495a1.59,1.59,0,0,0,.419.058,1.081,1.081,0,0,0,.467-.09.749.749,0,0,0,.305-.26A1.022,1.022,0,0,0,307.531,253.559Zm1.705-3.142a2,2,0,0,1,.609-.366,1.861,1.861,0,0,1,.654-.116,1.821,1.821,0,0,1,.69.138,2.064,2.064,0,0,1,.581.344l-.8,1.974h-.92Z" transform="translate(-265.732 -248.288)" fill="#fcfcfc"/>
      <rect id="Rectangle_225" data-name="Rectangle 225" width="0.529" height="0.529" transform="translate(1.505 0.002)" fill="#fcfcfc"/>
      <path id="Path_291" data-name="Path 291" d="M123.684,285.47h-.794l-1.753,1.849V285.47h-.647v3.675h.647v-1.065l.574-.589,1.256,1.654h.785l-1.6-2.095Z" transform="translate(-119.985 -277.472)" fill="#fcfcfc"/>
      <rect id="Rectangle_226" data-name="Rectangle 226" width="0.647" height="3.675" transform="translate(4.357 7.998)" fill="#fcfcfc"/>
      <path id="Path_292" data-name="Path 292" d="M148.612,288.012l-1.972-2.542h-.6v3.675h.637V286.53l2.03,2.615h.542V285.47h-.637Z" transform="translate(-140.04 -277.472)" fill="#fcfcfc"/>
      <path id="Path_293" data-name="Path 293" d="M166.567,287.427h.942v.688a1.505,1.505,0,0,1-.888.277,1.228,1.228,0,0,1-1.252-1.312v-.011a1.243,1.243,0,0,1,1.194-1.3,1.443,1.443,0,0,1,1.03.394l.411-.488a1.991,1.991,0,0,0-1.415-.5,1.874,1.874,0,0,0-1.9,1.9v.011a1.825,1.825,0,0,0,1.91,1.89,2.347,2.347,0,0,0,1.535-.572v-1.544h-1.568Z" transform="translate(-154.679 -277.244)" fill="#fcfcfc"/>
      <path id="Path_294" data-name="Path 294" d="M186.232,285.47H184.86v3.675h1.372a1.842,1.842,0,0,0,1.957-1.839V287.3A1.834,1.834,0,0,0,186.232,285.47Zm1.28,1.849a1.2,1.2,0,0,1-1.277,1.239h-.725v-2.5h.725a1.206,1.206,0,0,1,1.277,1.249Z" transform="translate(-170.511 -277.472)" fill="#fcfcfc"/>
      <path id="Path_295" data-name="Path 295" d="M205.1,285.18a1.884,1.884,0,0,0-1.929,1.9v.011a1.926,1.926,0,0,0,3.852-.011v-.011A1.874,1.874,0,0,0,205.1,285.18Zm1.241,1.912a1.242,1.242,0,0,1-1.241,1.3,1.26,1.26,0,0,1-1.252-1.308v-.011a1.242,1.242,0,0,1,1.241-1.3,1.26,1.26,0,0,1,1.252,1.308Z" transform="translate(-184.884 -277.244)" fill="#fcfcfc"/>
      <path id="Path_296" data-name="Path 296" d="M226.609,287.208l-1.12-1.738H224.8v3.675h.637v-2.624l1.153,1.72h.019l1.163-1.731v2.634h.647V285.47h-.69Z" transform="translate(-201.862 -277.472)" fill="#fcfcfc"/>
      <path id="Path_297" data-name="Path 297" d="M254.549,285.18a1.884,1.884,0,0,0-1.929,1.9v.011a1.926,1.926,0,0,0,3.852-.011v-.011A1.871,1.871,0,0,0,254.549,285.18Zm1.241,1.912a1.242,1.242,0,0,1-1.241,1.3,1.26,1.26,0,0,1-1.252-1.308v-.011a1.242,1.242,0,0,1,1.241-1.3,1.26,1.26,0,0,1,1.252,1.308Z" transform="translate(-223.699 -277.244)" fill="#fcfcfc"/>
      <path id="Path_298" data-name="Path 298" d="M274.26,289.145h.647v-1.5h1.856v-.587h-1.856v-1H277v-.589h-2.74Z" transform="translate(-240.685 -277.472)" fill="#fcfcfc"/>
      <path id="Path_299" data-name="Path 299" d="M298.159,286.826c-.705-.168-.873-.295-.873-.576v-.011c0-.241.222-.437.6-.437a1.67,1.67,0,0,1,1,.379l.346-.488a2.047,2.047,0,0,0-1.336-.462,1.127,1.127,0,0,0-1.258,1.065v.011c0,.677.443.908,1.226,1.1.684.157.83.3.83.561v.013c0,.28-.252.462-.652.462a1.7,1.7,0,0,1-1.163-.477l-.389.462a2.271,2.271,0,0,0,1.536.587c.774,0,1.314-.409,1.314-1.1V287.9C299.342,287.292,298.937,287.015,298.159,286.826Z" transform="translate(-258.134 -277.284)" fill="#fcfcfc"/>
      <path id="Path_300" data-name="Path 300" d="M313.059,285.35l-1.619,3.7h.662l.378-.888h1.742l.374.888h.684l-1.619-3.7Zm-.342,2.243.632-1.471.637,1.471Z" transform="translate(-269.869 -277.378)" fill="#fcfcfc"/>
      <path id="Path_301" data-name="Path 301" d="M333.556,287.586c0,.677-.353,1.024-.927,1.024s-.931-.368-.931-1.049v-2.09h-.647v2.116a1.451,1.451,0,0,0,1.568,1.617,1.467,1.467,0,0,0,1.583-1.647v-2.084h-.647v2.114Z" transform="translate(-285.262 -277.472)" fill="#fcfcfc"/>
      <path id="Path_302" data-name="Path 302" d="M351.492,285.47H350.12v3.675h1.372a1.842,1.842,0,0,0,1.957-1.839V287.3A1.834,1.834,0,0,0,351.492,285.47Zm1.277,1.849a1.2,1.2,0,0,1-1.277,1.239h-.725v-2.5h.725a1.206,1.206,0,0,1,1.277,1.249Z" transform="translate(-300.231 -277.472)" fill="#fcfcfc"/>
      <rect id="Rectangle_227" data-name="Rectangle 227" width="0.647" height="3.675" transform="translate(54.038 7.998)" fill="#fcfcfc"/>
      <path id="Path_303" data-name="Path 303" d="M384.479,285.35l-1.619,3.7h.662l.379-.888h1.742l.374.888h.684l-1.619-3.7Zm-.342,2.243.632-1.471.637,1.471Z" transform="translate(-325.93 -277.378)" fill="#fcfcfc"/>
      <path id="Path_304" data-name="Path 304" d="M406.569,286.642v-.011a1.108,1.108,0,0,0-.305-.794,1.49,1.49,0,0,0-1.062-.368H403.56v3.675h.647v-1.282h.811l.905,1.282h.763l-.994-1.391A1.1,1.1,0,0,0,406.569,286.642Zm-2.361.65v-1.234h.942c.48,0,.763.215.763.609v.011c0,.372-.295.615-.757.615Z" transform="translate(-342.178 -277.472)" fill="#fcfcfc"/>
      <path id="Path_305" data-name="Path 305" d="M421.919,285.35l-1.619,3.7h.662l.379-.888h1.742l.374.888h.684l-1.619-3.7Zm-.342,2.243.632-1.471.637,1.471Z" transform="translate(-355.318 -277.378)" fill="#fcfcfc"/>
      <path id="Path_306" data-name="Path 306" d="M443.326,287.244a.877.877,0,0,0,.527-.819v-.011a.82.82,0,0,0-.247-.609,1.329,1.329,0,0,0-.963-.325H440.99v3.675h1.7c.822,0,1.361-.351,1.361-1.009v-.011A.9.9,0,0,0,443.326,287.244Zm-1.7-1.194h.931c.415,0,.647.179.647.467v.011c0,.336-.28.5-.695.5h-.884Zm1.783,2.028c0,.331-.269.5-.71.5h-1.073v-1.009h1.026c.51,0,.757.185.757.495Z" transform="translate(-371.558 -277.48)" fill="#fcfcfc"/>
      <rect id="Rectangle_228" data-name="Rectangle 228" width="0.647" height="3.675" transform="translate(73.301 7.998)" fill="#fcfcfc"/>
      <path id="Path_307" data-name="Path 307" d="M467.079,285.35h-.6l-1.619,3.7h.662l.378-.888h1.742l.374.888h.684Zm-.942,2.243.632-1.471.637,1.471Z" transform="translate(-390.295 -277.378)" fill="#fcfcfc"/>
    </g>
  </g>
</svg>
